<svg id="Layer_1" data-name="Layer 1" xmlns="http://www.w3.org/2000/svg" viewBox="0 0 100 100"><defs><style>.cls-1{fill:#30e286;}</style></defs><rect class="cls-1" x="64.57" y="-4.38" width="12.17" height="67.46" rx="1.93" transform="translate(141.36 0.15) rotate(135)"/><path class="cls-1" d="M76.26,71.44l-26,26a1.92,1.92,0,0,1-2.73,0L39.6,89.49a1.92,1.92,0,0,1,0-2.73L55.08,71.27a1.92,1.92,0,0,0,0-2.73L43.36,56.82a1.92,1.92,0,0,0-2.73,0L25.14,72.3a1.92,1.92,0,0,1-2.73,0l-7.94-7.94a1.92,1.92,0,0,1,0-2.73l26-26a1.94,1.94,0,0,1,2.73,0L76.26,68.71A1.94,1.94,0,0,1,76.26,71.44Z"/><path class="cls-1" d="M12.4,59.56,40.63,31.33a1.94,1.94,0,0,1,2.73,0L78.5,66.47a1.92,1.92,0,0,0,2.73,0l5.69-5.69a1.92,1.92,0,0,0,0-2.73l-45-45a1.92,1.92,0,0,0-2.73,0L2.57,49.73a1.92,1.92,0,0,0,0,2.73l7.09,7.1A1.93,1.93,0,0,0,12.4,59.56Z"/></svg>